<svg id="Layer_1" data-name="Layer 1" xmlns="http://www.w3.org/2000/svg" viewBox="0 0 214.78 257.98"><defs><style>.cls-1{fill:#333;}</style></defs><path class="cls-1" d="M79.74,257.88C42.65,259,9.6,231.66,2,198.11-2.08,180,0,162.69,9.13,146.43a7.35,7.35,0,0,0,.42-7.34C2.67,122.78,1,106.15,6.15,88.88c5-16.95,15.19-29.85,29.79-39.29C56.19,36.49,76.37,23.24,97.11,11c25-14.77,50.74-14.19,76.2-.79,21.62,11.39,35,29.34,39.94,53.2A68.48,68.48,0,0,1,205.06,113a5.4,5.4,0,0,0-.27,5.56c7.87,17.79,9.38,36,2.82,54.48a68.21,68.21,0,0,1-28.05,35.34q-30.83,19.89-62,39.3C105.89,255,93.05,258.67,79.74,257.88ZM136.1,30.62c-9-.75-17.88,3.17-26.33,8.58-17.23,11-34.41,22.17-51.84,32.9C46.37,79.22,37.58,88.29,34.8,101.92c-3.45,16.92,2.38,31,14.91,42.12,15.1,13.4,34.16,15.93,52.05,7,7.55-3.78,14.42-8.93,21.53-13.56a33.31,33.31,0,0,1,7.49-3.94,14.47,14.47,0,0,1,17.39,7.09c3.24,6.73,1.22,13.55-5.29,17.79-2.23,1.45-4.51,2.82-6.75,4.25-17.29,10.95-34.45,22.1-51.89,32.81-9.66,5.93-20.63.65-22.46-10.64-.55-3.39-2.12-5-5-5.94A70.06,70.06,0,0,1,36.9,168.55c-2.53-1.87-3.48-.93-4.16,1.52a42.79,42.79,0,0,0-1.84,11.81C31,199.36,39,212.66,53.74,221.42c16.31,9.67,33,9.36,49.13-.82,18.17-11.43,36.15-23.16,54.4-34.45,20.77-12.84,28.11-31.7,20.4-53.58-9.63-27.34-45.27-38.8-69.14-22.37-7.12,4.9-14.44,9.57-22,13.8A14.28,14.28,0,0,1,67,118.71c-3.86-7-1.68-14.35,5.46-18.86,19.4-12.26,39.06-24.16,58.05-37,8.62-5.84,21.86.77,22.28,11.13.11,2.78,1.26,4.13,3.75,5.09,7,2.69,13.95,5.57,20,10.08,3.58,2.66,4.93,1.75,6-2.34C189.63,58.58,167.36,30.77,136.1,30.62Z"/></svg>